<svg id="visual" viewBox="0 0 900 600" width="900" height="600" xmlns="http://www.w3.org/2000/svg" xmlns:xlink="http://www.w3.org/1999/xlink" version="1.1"><path d="M0 208L13.7 218.3C27.3 228.7 54.7 249.3 82 254.3C109.3 259.3 136.7 248.7 163.8 236C191 223.3 218 208.7 245.2 209.8C272.3 211 299.7 228 327 225C354.3 222 381.7 199 409 188.5C436.3 178 463.7 180 491 180.8C518.3 181.7 545.7 181.3 573 194.2C600.3 207 627.7 233 654.8 248.2C682 263.3 709 267.7 736.2 264C763.3 260.3 790.7 248.7 818 239.5C845.3 230.3 872.7 223.7 886.3 220.3L900 217L900 0L886.3 0C872.7 0 845.3 0 818 0C790.7 0 763.3 0 736.2 0C709 0 682 0 654.8 0C627.7 0 600.3 0 573 0C545.7 0 518.3 0 491 0C463.7 0 436.3 0 409 0C381.7 0 354.3 0 327 0C299.7 0 272.3 0 245.2 0C218 0 191 0 163.8 0C136.7 0 109.3 0 82 0C54.7 0 27.3 0 13.7 0L0 0Z" fill="#3eaba5"></path><path d="M0 130L13.7 131C27.3 132 54.7 134 82 136.2C109.3 138.3 136.7 140.7 163.8 157.8C191 175 218 207 245.2 225.2C272.3 243.3 299.7 247.7 327 244.7C354.3 241.7 381.7 231.3 409 226.3C436.3 221.3 463.7 221.7 491 215.8C518.3 210 545.7 198 573 187.8C600.3 177.7 627.7 169.3 654.8 177C682 184.7 709 208.3 736.2 206C763.3 203.7 790.7 175.3 818 177.5C845.3 179.7 872.7 212.3 886.3 228.7L900 245L900 0L886.3 0C872.7 0 845.3 0 818 0C790.7 0 763.3 0 736.2 0C709 0 682 0 654.8 0C627.7 0 600.3 0 573 0C545.7 0 518.3 0 491 0C463.7 0 436.3 0 409 0C381.7 0 354.3 0 327 0C299.7 0 272.3 0 245.2 0C218 0 191 0 163.8 0C136.7 0 109.3 0 82 0C54.7 0 27.3 0 13.7 0L0 0Z" fill="#228f97"></path><path d="M0 187L13.7 190.5C27.3 194 54.7 201 82 189.5C109.3 178 136.7 148 163.8 143C191 138 218 158 245.2 161.7C272.3 165.3 299.7 152.7 327 147.8C354.3 143 381.7 146 409 148C436.3 150 463.7 151 491 149.5C518.3 148 545.7 144 573 152.2C600.3 160.3 627.7 180.7 654.8 191.7C682 202.7 709 204.3 736.2 200.7C763.3 197 790.7 188 818 175.8C845.3 163.7 872.7 148.3 886.3 140.7L900 133L900 0L886.3 0C872.7 0 845.3 0 818 0C790.7 0 763.3 0 736.2 0C709 0 682 0 654.8 0C627.7 0 600.3 0 573 0C545.7 0 518.3 0 491 0C463.7 0 436.3 0 409 0C381.7 0 354.3 0 327 0C299.7 0 272.3 0 245.2 0C218 0 191 0 163.8 0C136.7 0 109.3 0 82 0C54.7 0 27.3 0 13.7 0L0 0Z" fill="#0f7485"></path><path d="M0 158L13.7 151.5C27.3 145 54.7 132 82 124.8C109.3 117.7 136.7 116.3 163.8 120.3C191 124.3 218 133.7 245.2 132.2C272.3 130.7 299.7 118.3 327 113.8C354.3 109.3 381.7 112.7 409 115.3C436.3 118 463.7 120 491 121.2C518.3 122.3 545.7 122.7 573 124.7C600.3 126.7 627.7 130.3 654.8 123.7C682 117 709 100 736.2 101.8C763.3 103.7 790.7 124.3 818 138.5C845.3 152.7 872.7 160.3 886.3 164.2L900 168L900 0L886.3 0C872.7 0 845.3 0 818 0C790.7 0 763.3 0 736.2 0C709 0 682 0 654.8 0C627.7 0 600.3 0 573 0C545.7 0 518.3 0 491 0C463.7 0 436.3 0 409 0C381.7 0 354.3 0 327 0C299.7 0 272.3 0 245.2 0C218 0 191 0 163.8 0C136.7 0 109.3 0 82 0C54.7 0 27.3 0 13.7 0L0 0Z" fill="#0b5a70"></path><path d="M0 64L13.7 70.2C27.3 76.3 54.7 88.7 82 88.3C109.3 88 136.7 75 163.8 76C191 77 218 92 245.2 98C272.3 104 299.7 101 327 92.5C354.3 84 381.7 70 409 63C436.3 56 463.7 56 491 66.5C518.3 77 545.7 98 573 101.5C600.3 105 627.7 91 654.8 92C682 93 709 109 736.2 109.8C763.3 110.7 790.7 96.3 818 85.5C845.3 74.7 872.7 67.3 886.3 63.7L900 60L900 0L886.3 0C872.7 0 845.3 0 818 0C790.7 0 763.3 0 736.2 0C709 0 682 0 654.8 0C627.7 0 600.3 0 573 0C545.7 0 518.3 0 491 0C463.7 0 436.3 0 409 0C381.7 0 354.3 0 327 0C299.7 0 272.3 0 245.2 0C218 0 191 0 163.8 0C136.7 0 109.3 0 82 0C54.7 0 27.3 0 13.7 0L0 0Z" fill="#0e4158"></path><path d="M0 21L13.7 22.3C27.3 23.7 54.7 26.3 82 33.3C109.3 40.3 136.7 51.7 163.8 50.2C191 48.7 218 34.3 245.2 32.3C272.3 30.3 299.7 40.7 327 45.8C354.3 51 381.7 51 409 48.5C436.3 46 463.7 41 491 39.3C518.3 37.7 545.7 39.3 573 40.2C600.3 41 627.7 41 654.8 45.8C682 50.7 709 60.3 736.2 58.5C763.3 56.7 790.7 43.3 818 37C845.3 30.7 872.7 31.3 886.3 31.7L900 32L900 0L886.3 0C872.7 0 845.3 0 818 0C790.7 0 763.3 0 736.2 0C709 0 682 0 654.8 0C627.7 0 600.3 0 573 0C545.7 0 518.3 0 491 0C463.7 0 436.3 0 409 0C381.7 0 354.3 0 327 0C299.7 0 272.3 0 245.2 0C218 0 191 0 163.8 0C136.7 0 109.3 0 82 0C54.7 0 27.3 0 13.7 0L0 0Z" fill="#0e293f"></path></svg>